:SAMPLES-PER-SECOND 30
:FULLY-SPECIFIED
:DEGREES
366
root  34.89189448 36.51664013 -14.79345907 8.786931992 -6.678180218 3.569973946
lowerback  -8.536729813 -0.7787320018 -0.5298339128
upperback  -3.89545989 -0.5609359741 -2.943830013
thorax  0.73021698 -0.1309420019 -2.790220022
lowerneck  -13.16119957 -7.448120117 -6.305480003
upperneck  21.68600082 -10.146101 7.781209946
head  9.775690079 -4.111249924 2.50654006
lclavicle  0 -4.497500157e-015 -2.743230041e-014
lhumerus  -48.01890182 29.28089905 64.57150269
lradius  0.007069340441 -6.507048965e-006 30.28890038
lwrist  4.824992743e-007 -3.790274832e-007 -28.13509941
lhand  -4.405300586e-031 -36.72040176 -10.72439957
lfingers  90 7.125020027 -90
lthumb  94.74225044 -25.56571091 100.8814038
rclavicle  0 -4.497500157e-015 -2.743230041e-014
rhumerus  -57.2349968 -44.1750946 -43.11030197
rradius  -5.16745672e-007 2.214343908e-008 37.40100098
rwrist  -2.867388866e-005 0.0111028729 -149.276001
rhand  -1.775242907e-031 5.986219883 -7.881830215
rfingers  -90 -7.125020027 -90
rthumb  -84.88329923 -8.341505645 -58.31643225
rfemur  -12.80773544 16.22560883 12.42576313
rtibia  -0.9771891236 -1.338338614 20.76529121
rfoot  0.5240952373 -22.52929497 -34.70004654
rtoes  4.099939364 19.59211694 -102.066185
lfemur  -8.341322899 -16.20591545 -20.51625824
ltibia  2.286191702 -1.196721077 14.96105576
lfoot  0.8327100277 -23.24649429 37.91456985
ltoes  -8.506763157 -18.16811184 -115.6267749
367
root  34.89283464 36.51730995 -14.79241379 8.794158936 -6.618180275 3.570465326
lowerback  -8.495229721 -0.7580179572 -0.5106018186
upperback  -3.896118641 -0.5354959965 -2.965080023
thorax  0.7099630237 -0.1187060028 -2.820389986
lowerneck  -13.13580036 -7.487889767 -6.316060066
upperneck  21.64780045 -10.20670033 7.814060211
head  9.764849663 -4.138179779 2.511759758
lclavicle  0 -4.497500157e-015 -2.743230041e-014
lhumerus  -47.98270035 29.19339943 64.626297
lradius  0.007069340441 -6.507048965e-006 30.34320068
lwrist  4.824992743e-007 -3.790274832e-007 -27.89739799
lhand  -4.405300586e-031 -36.72040176 -10.72439957
lfingers  90 7.125020027 -90
lthumb  94.74225044 -25.56571091 100.8814038
rclavicle  0 -4.497500157e-015 -2.743230041e-014
rhumerus  -58.00969696 -44.83580017 -42.28370285
rradius  -5.16745672e-007 2.214343908e-008 36.40309906
rwrist  -2.867388866e-005 0.0111028729 -148.5169983
rhand  -1.775242907e-031 5.986219883 -7.881830215
rfingers  -90 -7.125020027 -90
rthumb  -84.88329923 -8.341505645 -58.31643225
rfemur  -12.80078125 16.26209259 12.44355965
rtibia  -0.9865593314 -1.313899517 20.75917244
rfoot  0.5241205096 -22.4662571 -34.77625656
rtoes  4.099939364 19.59211694 -102.066185
lfemur  -8.35422039 -16.2264061 -20.50294495
ltibia  2.292580366 -1.209529877 14.96428299
lfoot  0.8178533912 -23.20492935 37.85303116
ltoes  -8.506763157 -18.16811184 -115.6267749
368
root  34.89347743 36.51883884 -14.79132795 8.792974472 -6.550840855 3.574898958
lowerback  -8.454778671 -0.734885931 -0.463750422
upperback  -3.897429943 -0.5089700222 -2.983479977
thorax  0.6841400266 -0.1062190011 -2.863110065
lowerneck  -13.10750008 -7.53071022 -6.34321022
upperneck  21.60720062 -10.26840019 7.84856987
head  9.753820419 -4.167210102 2.520109892
lclavicle  0 -4.497500157e-015 -2.743230041e-014
lhumerus  -47.96789932 29.07670021 64.68409729
lradius  0.007069340441 -6.507048965e-006 30.38660049
lwrist  4.824992743e-007 -3.790274832e-007 -27.71269798
lhand  -4.405300586e-031 -36.72040176 -10.72439957
lfingers  90 7.125020027 -90
lthumb  94.74225044 -25.56571091 100.8814038
rclavicle  0 -4.497500157e-015 -2.743230041e-014
rhumerus  -58.41240311 -45.1697998 -42.01479721
rradius  -5.16745672e-007 2.214343908e-008 35.82889938
rwrist  -2.867388866e-005 0.0111028729 -146.6549988
rhand  -1.775242907e-031 5.986219883 -7.881830215
rfingers  -90 -7.125020027 -90
rthumb  -84.88329923 -8.341505645 -58.31643225
rfemur  -12.77222157 16.23161888 12.45100784
rtibia  -0.9914336801 -1.313012958 20.7319355
rfoot  0.5301911831 -22.44207382 -34.80784225
rtoes  4.099939364 19.59211694 -102.066185
lfemur  -8.350268364 -16.21819687 -20.50322723
ltibia  2.310556889 -1.185453176 14.9555912
lfoot  0.8352716565 -23.25347519 37.83331299
ltoes  -8.506763157 -18.16811184 -115.6267749
369
root  34.89379282 36.5227887 -14.79023761 8.783778191 -6.460072041 3.594253063
lowerback  -8.416370392 -0.7332949638 -0.4367549121
upperback  -3.897249937 -0.5113220215 -2.973949909
thorax  0.6628389955 -0.1083270013 -2.868249893
lowerneck  -13.11149979 -7.568109989 -6.397870064
upperneck  21.58860016 -10.32280064 7.911509991
head  9.755674362 -4.19024992 2.542979956
lclavicle  0 -4.497500157e-015 -2.743230041e-014
lhumerus  -48.00780106 29.15110016 64.61920166
lradius  0.007069340441 -6.507048965e-006 30.31159973
lwrist  4.824992743e-007 -3.790274832e-007 -28.09749985
lhand  -4.405300586e-031 -36.72040176 -10.72439957
lfingers  90 7.125020027 -90
lthumb  94.74225044 -25.56571091 100.8814038
rclavicle  0 -4.497500157e-015 -2.743230041e-014
rhumerus  -58.95780182 -45.47249985 -41.53809738
rradius  -5.16745672e-007 2.214343908e-008 35.19380188
rwrist  -2.867388866e-005 0.0111028729 -145.7519989
rhand  -1.775242907e-031 5.986219883 -7.881830215
rfingers  -90 -7.125020027 -90
rthumb  -84.88329923 -8.341505645 -58.31643225
rfemur  -12.73782063 16.22278404 12.44957924
rtibia  -1.000685096 -1.302383184 20.72733116
rfoot  0.512159586 -22.40678978 -34.89471436
rtoes  4.099939364 19.59211694 -102.066185
lfemur  -8.295862198 -16.26477623 -20.55072784
ltibia  2.361695528 -1.175308108 14.88240147
lfoot  0.8217896819 -23.24606323 37.78643036
ltoes  -8.506763157 -18.16811184 -115.6267749
370
root  34.89589541 36.52077022 -14.78948067 8.779455185 -6.405698299 3.571849585
lowerback  -8.564331055 -0.6791130304 -0.3598410189
upperback  -3.786799908 -0.442595005 -3.044610023
thorax  0.8601959944 -0.07577270269 -2.980890036
lowerneck  -13.19550037 -7.635940075 -6.370369911
upperneck  21.51210022 -10.43550014 7.960269928
head  9.75881958 -4.237239838 2.536110163
lclavicle  0 -4.497500157e-015 -2.743230041e-014
lhumerus  -47.77590179 29.11800003 64.66929626
lradius  0.007069340441 -6.507048965e-006 30.20899773
lwrist  4.824992743e-007 -3.790274832e-007 -28.40049934
lhand  -4.405300586e-031 -36.72040176 -10.72439957
lfingers  90 7.125020027 -90
lthumb  94.74225044 -25.56571091 100.8814038
rclavicle  0 -4.497500157e-015 -2.743230041e-014
rhumerus  -59.37909698 -45.79270172 -41.35220337
rradius  -5.16745672e-007 2.214343908e-008 34.70660019
rwrist  -2.867388866e-005 0.0111028729 -145.470993
rhand  -1.775242907e-031 5.986219883 -7.881830215
rfingers  -90 -7.125020027 -90
rthumb  -84.88329923 -8.341505645 -58.31643225
rfemur  -12.70157337 16.18118095 12.46808624
rtibia  -0.9889962673 -1.321873307 20.67233467
rfoot  0.5382344723 -22.44073296 -34.87513351
rtoes  4.099939364 19.59211694 -102.066185
lfemur  -8.358240128 -16.26965714 -20.48775673
ltibia  2.300152779 -1.175797224 14.97500801
lfoot  0.8051128983 -23.28195763 37.72429276
ltoes  -8.506763157 -18.16811184 -115.6267749
371
root  34.89543284 36.52039475 -14.78901961 8.786935806 -6.354373455 3.545309782
lowerback  -8.670949936 -0.6262649894 -0.268117696
upperback  -3.694639921 -0.3773849905 -3.116539955
thorax  1.015900016 -0.04477550089 -3.102900028
lowerneck  -13.24969959 -7.703710079 -6.379270077
upperneck  21.42679977 -10.5452013 8.032810211
head  9.752949715 -4.283929825 2.544699907
lclavicle  0 -4.497500157e-015 -2.743230041e-014
lhumerus  -47.60150146 29.04710007 64.75939941
lradius  0.007069340441 -6.507048965e-006 30.21960068
lwrist  4.824992743e-007 -3.790274832e-007 -28.33189964
lhand  -4.405300586e-031 -36.72040176 -10.72439957
lfingers  90 7.125020027 -90
lthumb  94.74225044 -25.56571091 100.8814038
rclavicle  0 -4.497500157e-015 -2.743230041e-014
rhumerus  -60.06399918 -46.28300095 -40.98320007
rradius  -5.16745672e-007 2.214343908e-008 34.40459824
rwrist  -2.867388866e-005 0.0111028729 -145.2079926
rhand  -1.775242907e-031 5.986219883 -7.881830215
rfingers  -90 -7.125020027 -90
rthumb  -84.88329923 -8.341505645 -58.31643225
rfemur  -12.70203209 16.13782692 12.50328636
rtibia  -0.9877220988 -1.314445496 20.65469551
rfoot  0.5554961562 -22.42712402 -34.85511017
rtoes  4.099939364 19.59211694 -102.066185
lfemur  -8.432413101 -16.28495598 -20.40431023
ltibia  2.236886978 -1.140051842 15.05804253
lfoot  0.8151366115 -23.38693619 37.73707199
ltoes  -8.506763157 -18.16811184 -115.6267749
